<svg width="168" height="114" viewBox="0 0 168 114" fill="none" xmlns="http://www.w3.org/2000/svg">
<path d="M7.497 110L51.597 1.07299H52.185L96.285 110H88.2L49.833 12.539L54.831 9.74599L14.7 110H7.497ZM28.812 68.693H75.117L77.175 75.455H27.048L28.812 68.693ZM95.411 52.67L95.117 57.815L95.558 56.492L147.155 5.62999H156.416L113.198 48.407L161.267 110H152.153L107.906 52.964L95.264 65.018L95.411 110H88.061V5.62999H95.411V52.67Z" fill="white"/>
<path d="M134.76 41.22H137.34V50.76H146.88V53.28H137.34V62.94H134.76V53.28H125.22V50.76H134.76V41.22Z" fill="white"/>
</svg>
