<svg width="233" height="54" viewBox="0 0 233 54" fill="none" xmlns="http://www.w3.org/2000/svg">
<path d="M17.13 52.5V49.728H16.032V51.42H10.38V40.98H11.874V39.9H8.13V40.98H9.246V51.42H8.13V52.5H17.13ZM33.1846 52.5V51.42H31.7266V40.98H33.1846V39.9H29.1886V40.98H30.5926V51.42H29.1886V52.5H33.1846ZM49.2334 52.5V51.42H47.5234V46.686H53.3014V45.606H47.5234V40.98H52.9234V42.672H54.0034V39.9H45.2374V40.98H46.3894V51.42H45.2374V52.5H49.2334ZM75.0679 52.5V49.728H73.9879V51.42H68.3359V46.686H74.1139V45.606H68.3359V40.98H73.7359V42.672H74.8159V39.9H66.0499V40.98H67.2019V51.42H66.0499V52.5H75.0679ZM113.018 51.744L112.388 50.844C111.992 51.072 111.566 51.252 111.11 51.384C110.666 51.504 110.204 51.564 109.724 51.564C108.992 51.564 108.308 51.426 107.672 51.15C107.036 50.862 106.484 50.472 106.016 49.98C105.524 49.512 105.14 48.954 104.864 48.306C104.588 47.646 104.45 46.95 104.45 46.218C104.45 45.486 104.588 44.796 104.864 44.148C105.14 43.488 105.524 42.912 106.016 42.42C106.484 41.928 107.036 41.544 107.672 41.268C108.32 40.98 109.01 40.836 109.742 40.836C110.126 40.836 110.504 40.884 110.876 40.98C111.248 41.064 111.608 41.19 111.956 41.358V42.672H113.036V40.656C112.544 40.368 112.022 40.146 111.47 39.99C110.93 39.834 110.354 39.756 109.742 39.756C108.854 39.756 108.02 39.93 107.24 40.278C106.46 40.614 105.782 41.07 105.206 41.646C104.618 42.234 104.156 42.924 103.82 43.716C103.484 44.496 103.316 45.33 103.316 46.218C103.316 47.106 103.484 47.94 103.82 48.72C104.156 49.5 104.618 50.178 105.206 50.754C105.782 51.342 106.46 51.804 107.24 52.14C108.02 52.476 108.854 52.644 109.742 52.644C110.354 52.644 110.93 52.566 111.47 52.41C112.022 52.242 112.538 52.02 113.018 51.744ZM134.113 52.5V49.728H133.033V51.42H127.381V46.686H133.159V45.606H127.381V40.98H132.781V42.672H133.861V39.9H125.095V40.98H126.247V51.42H125.095V52.5H134.113ZM158.681 40.98H160.229V39.9H156.215V40.98H157.547V49.98L157.601 50.556L157.259 50.088L148.187 39.9H146.171V40.98H147.683V51.42H146.171V52.5H150.167V51.42H148.817V42.564L148.763 42.024L149.105 42.456L158.681 53.076V40.98ZM179.187 52.5V51.42H177.837V40.98H181.149V42.672H182.229V39.9H172.275V42.672H173.355V40.98H176.703V51.42H175.191V52.5H179.187ZM203.3 52.5V49.728H202.22V51.42H196.568V46.686H202.346V45.606H196.568V40.98H201.968V42.672H203.048V39.9H194.282V40.98H195.434V51.42H194.282V52.5H203.3ZM219.355 52.5V51.42H217.447V46.74H218.563C218.719 46.74 218.851 46.734 218.959 46.722C219.067 46.71 219.199 46.704 219.355 46.704L222.091 52.5H224.431V51.42H222.793L220.543 46.614C221.419 46.434 222.085 46.05 222.541 45.462C222.997 44.862 223.225 44.13 223.225 43.266C223.225 42.654 223.087 42.138 222.811 41.718C222.535 41.298 222.187 40.95 221.767 40.674C221.359 40.41 220.915 40.218 220.435 40.098C219.967 39.966 219.535 39.9 219.139 39.9H215.359V40.98H216.313V51.42H215.359V52.5H219.355ZM217.447 40.98H219.175C219.583 40.98 219.961 41.046 220.309 41.178C220.669 41.298 220.981 41.46 221.245 41.664C221.509 41.88 221.713 42.126 221.857 42.402C222.013 42.666 222.091 42.954 222.091 43.266C222.091 43.518 222.043 43.788 221.947 44.076C221.851 44.352 221.695 44.604 221.479 44.832C221.251 45.06 220.945 45.252 220.561 45.408C220.189 45.564 219.721 45.642 219.157 45.642H217.447V40.98Z" fill="#363D10"/>
<rect x="0.5" y="30.5" width="232.5" height="2.5" fill="#363D10"/>
<path d="M0.756 25L10.899 1.123H11.1195L21.2625 25H17.0415L9.891 6.8875L12.537 5.092L4.3785 25H0.756ZM7.119 16.495H14.9625L16.2225 19.6135H6.0165L7.119 16.495ZM27.6324 11.6755L27.9474 14.542L27.8214 14.164C28.2834 13.24 28.9659 12.505 29.8689 11.959C30.7929 11.392 31.8849 11.1085 33.1449 11.1085C34.4049 11.1085 35.4444 11.476 36.2634 12.211C37.0824 12.946 37.5024 13.912 37.5234 15.109V25H33.9954V16.369C33.9744 15.697 33.7854 15.1615 33.4284 14.7625C33.0714 14.3425 32.5044 14.122 31.7274 14.101C31.0134 14.101 30.3729 14.3215 29.8059 14.7625C29.2389 15.1825 28.7874 15.7705 28.4514 16.5265C28.1364 17.2615 27.9789 18.112 27.9789 19.078V25H24.4509V11.6755H27.6324ZM47.8345 25.3465C46.5745 25.3465 45.451 25.0525 44.464 24.4645C43.477 23.8765 42.7 23.0365 42.133 21.9445C41.566 20.8525 41.2825 19.582 41.2825 18.133C41.2825 16.642 41.587 15.3715 42.196 14.3215C42.805 13.2715 43.6345 12.4735 44.6845 11.9275C45.7555 11.3605 46.9525 11.077 48.2755 11.077C49.2415 11.077 50.1655 11.266 51.0475 11.644C51.9295 12.001 52.633 12.526 53.158 13.219L53.095 14.416V0.429999H56.5915V25H53.0635V22.0075L53.41 22.858C52.738 23.572 51.9295 24.1705 50.9845 24.6535C50.0605 25.1155 49.0105 25.3465 47.8345 25.3465ZM48.9685 22.354C49.6615 22.354 50.2705 22.2385 50.7955 22.0075C51.3415 21.7765 51.8035 21.451 52.1815 21.031C52.5805 20.59 52.8745 20.0755 53.0635 19.4875V16.6525C52.8955 16.1065 52.612 15.6235 52.213 15.2035C51.835 14.7835 51.3625 14.458 50.7955 14.227C50.2285 13.996 49.6195 13.8805 48.9685 13.8805C48.2125 13.8805 47.5195 14.059 46.8895 14.416C46.2805 14.773 45.787 15.2665 45.409 15.8965C45.031 16.5265 44.842 17.251 44.842 18.07C44.842 18.868 45.031 19.5925 45.409 20.2435C45.787 20.8945 46.291 21.409 46.921 21.787C47.551 22.165 48.2335 22.354 48.9685 22.354ZM64.6387 11.6755L64.9537 15.4555L64.8277 14.92C65.2057 14.122 65.7202 13.4395 66.3712 12.8725C67.0432 12.2845 67.7257 11.8435 68.4187 11.5495C69.1117 11.2345 69.6787 11.077 70.1197 11.077L69.9622 14.605C68.9542 14.521 68.0722 14.71 67.3162 15.172C66.5812 15.613 66.0037 16.201 65.5837 16.936C65.1847 17.671 64.9852 18.448 64.9852 19.267V25H61.4572V11.6755H64.6387ZM79.5097 25.3465C77.9347 25.3465 76.5907 25.042 75.4777 24.433C74.3647 23.824 73.5142 22.984 72.9262 21.913C72.3382 20.821 72.0442 19.5925 72.0442 18.2275C72.0442 16.8835 72.3802 15.676 73.0522 14.605C73.7242 13.534 74.6272 12.6835 75.7612 12.0535C76.9162 11.4025 78.1867 11.077 79.5727 11.077C81.3997 11.077 82.9012 11.6125 84.0772 12.6835C85.2742 13.7335 86.0722 15.2245 86.4712 17.1565L75.7297 20.779L74.9107 18.7945L83.2897 15.802L82.5652 16.2115C82.3342 15.5815 81.9562 15.0355 81.4312 14.5735C80.9272 14.1115 80.2132 13.8805 79.2892 13.8805C78.5542 13.8805 77.9032 14.059 77.3362 14.416C76.7692 14.752 76.3177 15.235 75.9817 15.865C75.6667 16.474 75.5092 17.1985 75.5092 18.0385C75.5092 18.8995 75.6877 19.6555 76.0447 20.3065C76.4017 20.9575 76.8847 21.4615 77.4937 21.8185C78.1027 22.1545 78.7957 22.3225 79.5727 22.3225C80.1187 22.3225 80.6437 22.228 81.1477 22.039C81.6517 21.85 82.1242 21.598 82.5652 21.283L84.1717 23.8975C83.4787 24.3385 82.7122 24.6955 81.8722 24.9685C81.0532 25.2205 80.2657 25.3465 79.5097 25.3465ZM98.5202 11.6755L102.017 19.771L101.355 19.834L104.537 11.6755H108.002L101.922 25.7875L97.6382 16.7785L93.7322 25.7875L87.5897 11.6755H91.0547L94.8032 20.2435L93.5747 20.023L96.3782 13.66L95.4647 11.6755H98.5202ZM125.423 10.8565L125.328 12.022L125.832 11.2975L134.432 2.068H139.188L129.707 12.085L139.535 25H134.873L127.029 14.416L125.423 15.991V25H121.706V2.068H125.423V10.8565ZM141.227 18.196C141.227 16.852 141.542 15.6445 142.172 14.5735C142.802 13.4815 143.684 12.631 144.818 12.022C145.973 11.392 147.275 11.077 148.724 11.077C150.215 11.077 151.507 11.392 152.599 12.022C153.712 12.631 154.573 13.4815 155.182 14.5735C155.791 15.6445 156.095 16.852 156.095 18.196C156.095 19.54 155.791 20.758 155.182 21.85C154.573 22.921 153.712 23.7715 152.599 24.4015C151.507 25.0315 150.205 25.3465 148.693 25.3465C147.265 25.3465 145.984 25.063 144.85 24.496C143.716 23.908 142.823 23.0785 142.172 22.0075C141.542 20.9365 141.227 19.666 141.227 18.196ZM144.787 18.2275C144.787 19.0045 144.955 19.7185 145.291 20.3695C145.627 20.9995 146.089 21.5035 146.677 21.8815C147.265 22.2595 147.916 22.4485 148.63 22.4485C149.407 22.4485 150.079 22.2595 150.646 21.8815C151.234 21.5035 151.685 20.9995 152 20.3695C152.336 19.7185 152.504 19.0045 152.504 18.2275C152.504 17.4295 152.336 16.7155 152 16.0855C151.685 15.4345 151.234 14.92 150.646 14.542C150.079 14.164 149.407 13.975 148.63 13.975C147.895 13.975 147.233 14.1745 146.645 14.5735C146.078 14.9515 145.627 15.4555 145.291 16.0855C144.955 16.7155 144.787 17.4295 144.787 18.2275ZM159.802 0.429999H163.33V25H159.802V0.429999ZM173.777 25.3465C172.517 25.3465 171.372 25.084 170.343 24.559C169.335 24.034 168.537 23.257 167.949 22.228C167.361 21.178 167.067 19.8865 167.067 18.3535C167.067 16.8415 167.372 15.55 167.981 14.479C168.611 13.387 169.43 12.547 170.438 11.959C171.467 11.371 172.58 11.077 173.777 11.077C175.058 11.077 176.087 11.329 176.864 11.833C177.662 12.337 178.281 12.9355 178.722 13.6285L178.533 14.1325L178.88 11.6755H182.124V25H178.596V21.7555L178.943 22.606C178.859 22.732 178.691 22.942 178.439 23.236C178.187 23.509 177.84 23.8135 177.399 24.1495C176.958 24.4855 176.433 24.769 175.824 25C175.236 25.231 174.554 25.3465 173.777 25.3465ZM174.753 22.4485C175.383 22.4485 175.95 22.333 176.454 22.102C176.979 21.871 177.42 21.5455 177.777 21.1255C178.155 20.7055 178.428 20.2015 178.596 19.6135V16.7155C178.428 16.1695 178.155 15.697 177.777 15.298C177.399 14.878 176.937 14.5525 176.391 14.3215C175.866 14.0905 175.278 13.975 174.627 13.975C173.913 13.975 173.252 14.1535 172.643 14.5105C172.034 14.8675 171.54 15.361 171.162 15.991C170.805 16.621 170.627 17.3455 170.627 18.1645C170.627 18.9625 170.816 19.687 171.194 20.338C171.572 20.989 172.076 21.5035 172.706 21.8815C173.336 22.2595 174.018 22.4485 174.753 22.4485ZM190.996 25.2835C189.988 25.2835 189.022 25.105 188.098 24.748C187.195 24.391 186.429 23.866 185.799 23.173L187.311 21.1885C187.899 21.7555 188.476 22.1755 189.043 22.4485C189.631 22.7005 190.188 22.8265 190.713 22.8265C191.112 22.8265 191.469 22.7845 191.784 22.7005C192.12 22.5955 192.382 22.438 192.571 22.228C192.781 22.018 192.886 21.7345 192.886 21.3775C192.886 20.9575 192.739 20.632 192.445 20.401C192.151 20.149 191.773 19.9495 191.311 19.8025C190.849 19.6345 190.366 19.477 189.862 19.33C188.707 18.973 187.846 18.448 187.279 17.755C186.712 17.062 186.429 16.264 186.429 15.361C186.429 14.668 186.607 14.0065 186.964 13.3765C187.321 12.7255 187.867 12.19 188.602 11.77C189.337 11.35 190.261 11.14 191.374 11.14C192.382 11.14 193.254 11.2555 193.989 11.4865C194.745 11.6965 195.448 12.064 196.099 12.589L194.745 14.6995C194.367 14.3425 193.915 14.0695 193.39 13.8805C192.886 13.6705 192.424 13.555 192.004 13.534C191.626 13.513 191.29 13.5655 190.996 13.6915C190.702 13.7965 190.461 13.954 190.272 14.164C190.104 14.374 190.02 14.6155 190.02 14.8885C189.999 15.3085 190.135 15.6445 190.429 15.8965C190.744 16.1485 191.143 16.348 191.626 16.495C192.109 16.642 192.592 16.7995 193.075 16.9675C193.726 17.1565 194.304 17.419 194.808 17.755C195.312 18.091 195.7 18.5005 195.973 18.9835C196.267 19.4455 196.414 20.023 196.414 20.716C196.414 21.514 196.215 22.27 195.816 22.984C195.417 23.677 194.818 24.2335 194.02 24.6535C193.222 25.0735 192.214 25.2835 190.996 25.2835ZM200.316 25V0.429999H203.844V25H200.316ZM207.151 16.054L213.231 25H209.136L204.82 18.07L207.151 16.054ZM202.773 20.9995L202.426 17.5975L210.522 11.3605L212.664 13.2505L202.773 20.9995ZM215.086 18.196C215.086 16.852 215.401 15.6445 216.031 14.5735C216.661 13.4815 217.543 12.631 218.677 12.022C219.832 11.392 221.134 11.077 222.583 11.077C224.074 11.077 225.366 11.392 226.458 12.022C227.571 12.631 228.432 13.4815 229.041 14.5735C229.65 15.6445 229.954 16.852 229.954 18.196C229.954 19.54 229.65 20.758 229.041 21.85C228.432 22.921 227.571 23.7715 226.458 24.4015C225.366 25.0315 224.064 25.3465 222.552 25.3465C221.124 25.3465 219.843 25.063 218.709 24.496C217.575 23.908 216.682 23.0785 216.031 22.0075C215.401 20.9365 215.086 19.666 215.086 18.196ZM218.646 18.2275C218.646 19.0045 218.814 19.7185 219.15 20.3695C219.486 20.9995 219.948 21.5035 220.536 21.8815C221.124 22.2595 221.775 22.4485 222.489 22.4485C223.266 22.4485 223.938 22.2595 224.505 21.8815C225.093 21.5035 225.544 20.9995 225.859 20.3695C226.195 19.7185 226.363 19.0045 226.363 18.2275C226.363 17.4295 226.195 16.7155 225.859 16.0855C225.544 15.4345 225.093 14.92 224.505 14.542C223.938 14.164 223.266 13.975 222.489 13.975C221.754 13.975 221.092 14.1745 220.504 14.5735C219.937 14.9515 219.486 15.4555 219.15 16.0855C218.814 16.7155 218.646 17.4295 218.646 18.2275Z" fill="#363D10"/>
</svg>
